<svg width="32" height="32" viewBox="0 0 32 32" fill="none" xmlns="http://www.w3.org/2000/svg">
<g clip-path="url(#clip0_87_3259)">
<g clip-path="url(#clip1_87_3259)">
<path d="M16 32C24.8366 32 32 24.8366 32 16C32 7.16344 24.8366 0 16 0C7.16344 0 0 7.16344 0 16C0 24.8366 7.16344 32 16 32Z" fill="#B2D4FF" fill-opacity="0.66"/>
<path d="M21.1234 18.3311C21.1234 17.9642 20.826 17.6668 20.4591 17.6668C20.0923 17.6668 19.7948 17.9642 19.7948 18.3311H21.1234ZM20.4591 20.4014H19.7948C19.7948 20.7683 20.0923 21.0657 20.4591 21.0657V20.4014ZM21.5884 21.0657C21.9553 21.0657 22.2527 20.7683 22.2527 20.4014C22.2527 20.0346 21.9553 19.7371 21.5884 19.7371V21.0657ZM23.7805 19.7371C23.7805 21.4492 22.3926 22.8371 20.6806 22.8371V24.1657C23.1264 24.1657 25.1091 22.183 25.1091 19.7371H23.7805ZM20.6806 22.8371C18.9685 22.8371 17.5806 21.4492 17.5806 19.7371H16.252C16.252 22.183 18.2347 24.1657 20.6806 24.1657V22.8371ZM17.5806 19.7371C17.5806 18.0251 18.9685 16.6371 20.6806 16.6371V15.3086C18.2347 15.3086 16.252 17.2913 16.252 19.7371H17.5806ZM20.6806 16.6371C22.3926 16.6371 23.7805 18.0251 23.7805 19.7371H25.1091C25.1091 17.2913 23.1264 15.3086 20.6806 15.3086V16.6371ZM19.7948 18.3311V20.4014H21.1234V18.3311H19.7948ZM20.4591 21.0657H21.5884V19.7371H20.4591V21.0657Z" fill="#0D48A6"/>
<path d="M8.05859 13.0377V18.7949C8.05859 19.7732 8.85169 20.5663 9.83002 20.5663H14.6461M8.05859 13.0377V11.0449C8.05859 10.0665 8.85169 9.27344 9.83002 9.27344H21.3443C22.3226 9.27344 23.1157 10.0665 23.1157 11.0449V13.0377M8.05859 13.0377H23.1157M23.1157 13.0377V13.9788" stroke="#0D48A6" stroke-width="1.32857" stroke-linecap="round"/>
<path d="M18.6445 10.5409V8" stroke="#0D48A6" stroke-width="1.32857" stroke-linecap="round"/>
<path d="M12.7168 10.5409V8" stroke="#0D48A6" stroke-width="1.32857" stroke-linecap="round"/>
</g>
</g>
<defs>
<clipPath id="clip0_87_3259">
<rect width="32" height="32" fill="white"/>
</clipPath>
<clipPath id="clip1_87_3259">
<rect width="32" height="32" fill="white"/>
</clipPath>
</defs>
</svg>
