<svg width="36" height="36" viewBox="0 0 36 36" fill="none" xmlns="http://www.w3.org/2000/svg">
<path d="M30 28.5V15.75C30 15.5171 29.9458 15.2875 29.8416 15.0792C29.7375 14.8709 29.5863 14.6897 29.4 14.55L18.9 6.675C18.6404 6.48027 18.3246 6.375 18 6.375C17.6754 6.375 17.3596 6.48027 17.1 6.675L6.6 14.55C6.41371 14.6897 6.2625 14.8709 6.15836 15.0792C6.05422 15.2875 6 15.5171 6 15.75V28.5C6 28.8978 6.15804 29.2794 6.43934 29.5607C6.72064 29.842 7.10218 30 7.5 30H13.5C13.8978 30 14.2794 29.842 14.5607 29.5607C14.842 29.2794 15 28.8978 15 28.5V24C15 23.6022 15.158 23.2206 15.4393 22.9393C15.7206 22.658 16.1022 22.5 16.5 22.5H19.5C19.8978 22.5 20.2794 22.658 20.5607 22.9393C20.842 23.2206 21 23.6022 21 24V28.5C21 28.8978 21.158 29.2794 21.4393 29.5607C21.7206 29.842 22.1022 30 22.5 30H28.5C28.8978 30 29.2794 29.842 29.5607 29.5607C29.842 29.2794 30 28.8978 30 28.5Z" fill="white" stroke="white" stroke-width="2" stroke-linecap="round" stroke-linejoin="round"/>
</svg>
