<svg width="36" height="36" viewBox="0 0 36 36" fill="none" xmlns="http://www.w3.org/2000/svg">
<path d="M33 12.912V25.125C33.0001 26.3702 32.5237 27.5682 31.6685 28.4733C30.8133 29.3785 29.6442 29.922 28.401 29.9925L28.125 30H7.875C6.62979 30.0001 5.43176 29.5237 4.52665 28.6685C3.62155 27.8133 3.078 26.6442 3.0075 25.401L3 25.125V12.912L17.478 20.496C17.6391 20.5804 17.8182 20.6244 18 20.6244C18.1818 20.6244 18.3609 20.5804 18.522 20.496L33 12.912ZM7.875 6H28.125C29.3334 5.99985 30.4987 6.44849 31.3951 7.2589C32.2914 8.06931 32.8548 9.18372 32.976 10.386L18 18.231L3.024 10.386C3.14029 9.23147 3.66457 8.15628 4.50262 7.35369C5.34068 6.55111 6.43752 6.07378 7.596 6.0075L7.875 6Z" fill="white"/>
</svg>
