<svg width="41" height="41" viewBox="0 0 41 41" fill="none" xmlns="http://www.w3.org/2000/svg">
<path d="M26.442 22.0215L29.0304 36.5881C29.0594 36.7596 29.0353 36.9359 28.9614 37.0934C28.8875 37.2509 28.7673 37.382 28.6168 37.4693C28.4663 37.5566 28.2928 37.5959 28.1194 37.5819C27.946 37.5679 27.781 37.5014 27.6465 37.3911L21.5301 32.8004C21.2348 32.5798 20.8761 32.4606 20.5076 32.4606C20.139 32.4606 19.7803 32.5798 19.485 32.8004L13.3584 37.3894C13.224 37.4995 13.0592 37.5659 12.886 37.5799C12.7128 37.5939 12.5395 37.5548 12.3891 37.4677C12.2387 37.3807 12.1185 37.2498 12.0444 37.0927C11.9703 36.9355 11.946 36.7595 11.9745 36.5881L14.5612 22.0215" stroke="#155DFC" stroke-width="3.41698" stroke-linecap="round" stroke-linejoin="round"/>
<path d="M20.501 23.9199C26.1624 23.9199 30.7519 19.3304 30.7519 13.6689C30.7519 8.00748 26.1624 3.41797 20.501 3.41797C14.8395 3.41797 10.25 8.00748 10.25 13.6689C10.25 19.3304 14.8395 23.9199 20.501 23.9199Z" stroke="#155DFC" stroke-width="3.41698" stroke-linecap="round" stroke-linejoin="round"/>
</svg>
